<?xml version="1.0" encoding="UTF-8"?>
<svg id="Layer_2" data-name="Layer 2" xmlns="http://www.w3.org/2000/svg" viewBox="0 0 44.95 44.95">
  <defs>
    <style>
      .cls-1 {
        fill: #ffc735;
        stroke-width: 0px;
      }
    </style>
  </defs>
  <g id="Layer_6" data-name="Layer 6">
    <path class="cls-1" d="m41.82,0H3.13C1.4,0,0,1.4,0,3.13v38.68c0,1.73,1.4,3.13,3.13,3.13h38.68c1.73,0,3.13-1.4,3.13-3.13V3.13c0-1.73-1.4-3.13-3.13-3.13ZM13.58,37.56h-6.75v-20.21h6.75v20.21Zm-3.37-22.91c-2.18,0-3.79-1.59-3.79-3.54s1.61-3.54,3.79-3.54,3.82,1.59,3.82,3.54-1.64,3.54-3.82,3.54Zm27.59,22.96h-6.74l.04-11.11c0-1.27-.3-2.24-.82-3-.36-.54-1.3-1.15-2.15-1.22-.94-.07-2.1.33-2.86,1.01-1.15,1.03-1.23,2.64-1.25,4.62v9.71h-6.7v-20.21h6.66v2.69c1.08-1.34,1.82-1.96,2.92-2.53,1.1-.58,2.45-.74,4.03-.62,1.92.14,3.4.84,4.69,2.14,1.16,1.17,1.93,3.1,2.16,5.68v12.85Z"/>
  </g>
</svg>