<?xml version="1.0" encoding="UTF-8"?>
<svg id="Layer_2" data-name="Layer 2" xmlns="http://www.w3.org/2000/svg" viewBox="0 0 70.71 69.82">
  <defs>
    <style>
      .cls-1 {
        fill: #39393a;
      }

      .cls-1, .cls-2, .cls-3, .cls-4 {
        stroke-width: 0px;
      }

      .cls-2 {
        fill: #8a8a8a;
      }

      .cls-3 {
        fill: #bb892c;
      }

      .cls-4 {
        fill: #fff;
      }
    </style>
  </defs>
  <g id="Layer_4" data-name="Layer 4">
    <g>
      <g>
        <path class="cls-4" d="m35.35,69.57C16.24,69.57.69,54.02.69,34.91S16.24.25,35.35.25s34.66,15.55,34.66,34.66-15.55,34.66-34.66,34.66Z"/>
        <path class="cls-2" d="m35.35.5c18.97,0,34.41,15.44,34.41,34.41s-15.44,34.41-34.41,34.41S.94,53.89.94,34.91,16.38.5,35.35.5m0-.5C16.07,0,.44,15.63.44,34.91s15.63,34.91,34.91,34.91,34.91-15.63,34.91-34.91S54.63,0,35.35,0h0Z"/>
      </g>
      <g>
        <path class="cls-1" d="m15.86,33.68c3.67.27,6.4,1.18,8.18,2.73,1.78,1.55,2.67,3.49,2.67,5.82,0,2.03-.6,3.77-1.81,5.23-1.21,1.46-2.75,2.42-4.64,2.87-1.88.45-4.41.68-7.57.68H0v-1.09h1.24c1.38,0,2.34-.17,2.87-.52.53-.35.87-.89,1.01-1.63.14-.74.21-2.45.21-5.14v-15.67c0-2.61-.08-4.3-.23-5.06-.15-.76-.47-1.28-.95-1.57-.49-.28-1.55-.43-3.18-.43H.36v-1.09l5.32-.14,6.06-.19c8.84,0,13.26,2.53,13.26,7.6,0,2.09-.76,3.77-2.28,5.03-1.52,1.27-3.8,2.12-6.86,2.56Zm-5.84-.45c.4.02.73.02,1,.02,3.43,0,5.78-.54,7.03-1.61s1.88-2.82,1.88-5.22c0-1.68-.25-2.98-.74-3.89s-1.23-1.63-2.22-2.13c-.99-.5-2.67-.75-5.05-.75-.62,0-1.26.02-1.91.07v13.51Zm0,1.16v7.17c0,3.05.06,4.99.17,5.82s.41,1.45.89,1.88c.48.43,1.44.64,2.87.64,2.54,0,4.45-.65,5.72-1.95,1.27-1.3,1.91-3.24,1.91-5.84s-.72-4.62-2.16-5.88c-1.44-1.26-3.97-1.89-7.6-1.89-.57,0-1.18.02-1.81.05Z"/>
        <path class="cls-1" d="m43.92,35.59c-.41-.38-.86-.73-1.35-1.02-1.26-.75-3.29-1.74-6.07-2.98-2.91-1.3-4.92-2.47-6.03-3.51-1.13-1.03-1.69-2.29-1.69-3.77,0-1.23.45-2.37,1.35-3.41.9-1.04,2.31-1.55,4.23-1.55,2.02,0,3.79.7,5.33,2.11,1.53,1.41,2.6,3.34,3.21,5.79h1.02v-6.21l-.65-2.22h-.37c-.1,1.01-.51,1.95-1.24,2.83-1.27-1.39-2.51-2.31-3.72-2.75s-2.5-.66-3.86-.66c-2.45,0-4.47.76-6.07,2.29-1.6,1.53-2.4,3.44-2.4,5.73,0,1.5.37,2.92,1.11,4.25.74,1.33,1.77,2.41,3.09,3.24s3.27,1.8,5.87,2.91c2.91,1.23,4.91,2.39,6.01,3.47,1.1,1.09,1.65,2.45,1.65,4.06s-.62,3.04-1.87,4.33c-1.25,1.29-3.01,1.94-5.28,1.94-5.05,0-8.26-3.37-9.61-10.11h-1.19v10.35h1.19c.25-1.35.64-2.39,1.17-3.13,2.37,2.71,5.33,4.06,8.87,4.06,3.05,0,5.48-.85,7.32-2.53v-13.48Z"/>
        <path class="cls-3" d="m68.17,18.88v31.69h-4.24v-31.54l.04-.15h4.2m-18.6,0l6.66,22.85.47,1.61-2.06,7.14-8.17-26.94-1.2-3.97v.42l-.32-1.1h4.63m19.21-.62h-5.27l-6.69,23.29-6.79-23.29h-5.91l.78,2.68v30.24h.98v-27.47l8.45,27.86h.63l8.35-28.93v28.54h5.47V18.26h0Z"/>
        <path class="cls-3" d="m70.09,18.88v31.69h-4.24v-31.54l.04-.15h4.2m-18.6,0l6.66,22.85.47,1.61-2.06,7.14-8.17-26.94-1.2-3.97v.42l-.32-1.1h4.63m19.21-.62h-5.27l-6.69,23.29-6.79-23.29h-5.91l.78,2.68v30.24h.98v-27.47l8.45,27.86h.63l8.35-28.93v28.54h5.47V18.26h0Z"/>
        <path class="cls-1" d="m66.87,18.26v32.92h-5.47v-28.54l-8.35,28.93h-.63l-8.45-27.86v27.47h-.98v-30.24l-.78-2.67h5.91l6.79,23.29,6.69-23.29h5.27Z"/>
      </g>
    </g>
  </g>
</svg>