<?xml version="1.0" encoding="UTF-8"?>
<svg id="Layer_2" data-name="Layer 2" xmlns="http://www.w3.org/2000/svg" xmlns:xlink="http://www.w3.org/1999/xlink" viewBox="0 0 142.08 535.44">
  <defs>
    <style>
      .cls-1 {
        filter: url(#drop-shadow-20);
      }

      .cls-1, .cls-2, .cls-3 {
        fill: #898989;
      }

      .cls-1, .cls-2, .cls-3, .cls-4, .cls-5, .cls-6, .cls-7, .cls-8, .cls-9, .cls-10, .cls-11, .cls-12, .cls-13, .cls-14, .cls-15, .cls-16, .cls-17, .cls-18, .cls-19, .cls-20, .cls-21, .cls-22, .cls-23, .cls-24, .cls-25, .cls-26, .cls-27, .cls-28, .cls-29, .cls-30, .cls-31, .cls-32, .cls-33 {
        stroke-width: 0px;
      }

      .cls-2 {
        filter: url(#drop-shadow-17);
      }

      .cls-3 {
        filter: url(#drop-shadow-19);
      }

      .cls-4 {
        fill: #fbfcfd;
        filter: url(#drop-shadow-18);
      }

      .cls-5 {
        filter: url(#drop-shadow-14);
      }

      .cls-5, .cls-6, .cls-7, .cls-8, .cls-9, .cls-10, .cls-11, .cls-12, .cls-13, .cls-14, .cls-15, .cls-16, .cls-17, .cls-18, .cls-19, .cls-20, .cls-21, .cls-22, .cls-23, .cls-24, .cls-25, .cls-26, .cls-27, .cls-28, .cls-29, .cls-30, .cls-31, .cls-32, .cls-33 {
        fill: #fff;
      }

      .cls-6 {
        filter: url(#drop-shadow-22);
      }

      .cls-7 {
        filter: url(#drop-shadow-26);
      }

      .cls-8 {
        filter: url(#drop-shadow-29);
      }

      .cls-9 {
        filter: url(#drop-shadow-25);
      }

      .cls-10 {
        filter: url(#drop-shadow-28);
      }

      .cls-11 {
        filter: url(#drop-shadow-27);
      }

      .cls-12 {
        filter: url(#drop-shadow-24);
      }

      .cls-13 {
        filter: url(#drop-shadow-23);
      }

      .cls-14 {
        filter: url(#drop-shadow-31);
      }

      .cls-15 {
        filter: url(#drop-shadow-32);
      }

      .cls-16 {
        filter: url(#drop-shadow-30);
      }

      .cls-17 {
        filter: url(#drop-shadow-16);
      }

      .cls-18 {
        filter: url(#drop-shadow-15);
      }

      .cls-19 {
        filter: url(#drop-shadow-11);
      }

      .cls-20 {
        filter: url(#drop-shadow-13);
      }

      .cls-21 {
        filter: url(#drop-shadow-10);
      }

      .cls-22 {
        filter: url(#drop-shadow-12);
      }

      .cls-23 {
        filter: url(#drop-shadow-33);
      }

      .cls-24 {
        filter: url(#drop-shadow-3);
      }

      .cls-25 {
        filter: url(#drop-shadow-8);
      }

      .cls-26 {
        filter: url(#drop-shadow-2);
      }

      .cls-27 {
        filter: url(#drop-shadow-6);
      }

      .cls-28 {
        filter: url(#drop-shadow-1);
      }

      .cls-29 {
        filter: url(#drop-shadow-9);
      }

      .cls-30 {
        filter: url(#drop-shadow-7);
      }

      .cls-31 {
        filter: url(#drop-shadow-4);
      }

      .cls-32 {
        filter: url(#drop-shadow-5);
      }

      .cls-33 {
        filter: url(#drop-shadow-21);
        opacity: .5;
      }
    </style>
    <filter id="drop-shadow-1" filterUnits="userSpaceOnUse">
      <feOffset dx="0" dy="0"/>
      <feGaussianBlur result="blur" stdDeviation="2"/>
      <feFlood flood-color="#898989" flood-opacity=".4"/>
      <feComposite in2="blur" operator="in"/>
      <feComposite in="SourceGraphic"/>
    </filter>
    <filter id="drop-shadow-2" filterUnits="userSpaceOnUse">
      <feOffset dx="0" dy="0"/>
      <feGaussianBlur result="blur-2" stdDeviation="2"/>
      <feFlood flood-color="#898989" flood-opacity=".4"/>
      <feComposite in2="blur-2" operator="in"/>
      <feComposite in="SourceGraphic"/>
    </filter>
    <filter id="drop-shadow-3" filterUnits="userSpaceOnUse">
      <feOffset dx="0" dy="0"/>
      <feGaussianBlur result="blur-3" stdDeviation="2"/>
      <feFlood flood-color="#898989" flood-opacity=".4"/>
      <feComposite in2="blur-3" operator="in"/>
      <feComposite in="SourceGraphic"/>
    </filter>
    <filter id="drop-shadow-4" filterUnits="userSpaceOnUse">
      <feOffset dx="0" dy="0"/>
      <feGaussianBlur result="blur-4" stdDeviation="2"/>
      <feFlood flood-color="#898989" flood-opacity=".4"/>
      <feComposite in2="blur-4" operator="in"/>
      <feComposite in="SourceGraphic"/>
    </filter>
    <filter id="drop-shadow-5" filterUnits="userSpaceOnUse">
      <feOffset dx="0" dy="0"/>
      <feGaussianBlur result="blur-5" stdDeviation="2"/>
      <feFlood flood-color="#898989" flood-opacity=".4"/>
      <feComposite in2="blur-5" operator="in"/>
      <feComposite in="SourceGraphic"/>
    </filter>
    <filter id="drop-shadow-6" filterUnits="userSpaceOnUse">
      <feOffset dx="0" dy="0"/>
      <feGaussianBlur result="blur-6" stdDeviation="2"/>
      <feFlood flood-color="#898989" flood-opacity=".4"/>
      <feComposite in2="blur-6" operator="in"/>
      <feComposite in="SourceGraphic"/>
    </filter>
    <filter id="drop-shadow-7" filterUnits="userSpaceOnUse">
      <feOffset dx="0" dy="0"/>
      <feGaussianBlur result="blur-7" stdDeviation="2"/>
      <feFlood flood-color="#898989" flood-opacity=".4"/>
      <feComposite in2="blur-7" operator="in"/>
      <feComposite in="SourceGraphic"/>
    </filter>
    <filter id="drop-shadow-8" filterUnits="userSpaceOnUse">
      <feOffset dx="0" dy="0"/>
      <feGaussianBlur result="blur-8" stdDeviation="2"/>
      <feFlood flood-color="#898989" flood-opacity=".4"/>
      <feComposite in2="blur-8" operator="in"/>
      <feComposite in="SourceGraphic"/>
    </filter>
    <filter id="drop-shadow-9" filterUnits="userSpaceOnUse">
      <feOffset dx="0" dy="0"/>
      <feGaussianBlur result="blur-9" stdDeviation="2"/>
      <feFlood flood-color="#898989" flood-opacity=".4"/>
      <feComposite in2="blur-9" operator="in"/>
      <feComposite in="SourceGraphic"/>
    </filter>
    <filter id="drop-shadow-10" filterUnits="userSpaceOnUse">
      <feOffset dx="0" dy="0"/>
      <feGaussianBlur result="blur-10" stdDeviation="2"/>
      <feFlood flood-color="#898989" flood-opacity=".4"/>
      <feComposite in2="blur-10" operator="in"/>
      <feComposite in="SourceGraphic"/>
    </filter>
    <filter id="drop-shadow-11" filterUnits="userSpaceOnUse">
      <feOffset dx="0" dy="0"/>
      <feGaussianBlur result="blur-11" stdDeviation="2"/>
      <feFlood flood-color="#898989" flood-opacity=".4"/>
      <feComposite in2="blur-11" operator="in"/>
      <feComposite in="SourceGraphic"/>
    </filter>
    <filter id="drop-shadow-12" filterUnits="userSpaceOnUse">
      <feOffset dx="0" dy="0"/>
      <feGaussianBlur result="blur-12" stdDeviation="2"/>
      <feFlood flood-color="#898989" flood-opacity=".4"/>
      <feComposite in2="blur-12" operator="in"/>
      <feComposite in="SourceGraphic"/>
    </filter>
    <filter id="drop-shadow-13" filterUnits="userSpaceOnUse">
      <feOffset dx="0" dy="0"/>
      <feGaussianBlur result="blur-13" stdDeviation="2"/>
      <feFlood flood-color="#898989" flood-opacity=".4"/>
      <feComposite in2="blur-13" operator="in"/>
      <feComposite in="SourceGraphic"/>
    </filter>
    <filter id="drop-shadow-14" filterUnits="userSpaceOnUse">
      <feOffset dx="0" dy="0"/>
      <feGaussianBlur result="blur-14" stdDeviation="2"/>
      <feFlood flood-color="#898989" flood-opacity=".4"/>
      <feComposite in2="blur-14" operator="in"/>
      <feComposite in="SourceGraphic"/>
    </filter>
    <filter id="drop-shadow-15" filterUnits="userSpaceOnUse">
      <feOffset dx="0" dy="0"/>
      <feGaussianBlur result="blur-15" stdDeviation="2"/>
      <feFlood flood-color="#898989" flood-opacity=".4"/>
      <feComposite in2="blur-15" operator="in"/>
      <feComposite in="SourceGraphic"/>
    </filter>
    <filter id="drop-shadow-16" filterUnits="userSpaceOnUse">
      <feOffset dx="0" dy="0"/>
      <feGaussianBlur result="blur-16" stdDeviation="2"/>
      <feFlood flood-color="#898989" flood-opacity=".4"/>
      <feComposite in2="blur-16" operator="in"/>
      <feComposite in="SourceGraphic"/>
    </filter>
    <filter id="drop-shadow-17" filterUnits="userSpaceOnUse">
      <feOffset dx="0" dy="0"/>
      <feGaussianBlur result="blur-17" stdDeviation="2"/>
      <feFlood flood-color="#898989" flood-opacity=".4"/>
      <feComposite in2="blur-17" operator="in"/>
      <feComposite in="SourceGraphic"/>
    </filter>
    <filter id="drop-shadow-18" filterUnits="userSpaceOnUse">
      <feOffset dx="0" dy="0"/>
      <feGaussianBlur result="blur-18" stdDeviation="2"/>
      <feFlood flood-color="#898989" flood-opacity=".4"/>
      <feComposite in2="blur-18" operator="in"/>
      <feComposite in="SourceGraphic"/>
    </filter>
    <filter id="drop-shadow-19" filterUnits="userSpaceOnUse">
      <feOffset dx="0" dy="0"/>
      <feGaussianBlur result="blur-19" stdDeviation="2"/>
      <feFlood flood-color="#898989" flood-opacity=".4"/>
      <feComposite in2="blur-19" operator="in"/>
      <feComposite in="SourceGraphic"/>
    </filter>
    <filter id="drop-shadow-20" filterUnits="userSpaceOnUse">
      <feOffset dx="0" dy="0"/>
      <feGaussianBlur result="blur-20" stdDeviation="2"/>
      <feFlood flood-color="#898989" flood-opacity=".4"/>
      <feComposite in2="blur-20" operator="in"/>
      <feComposite in="SourceGraphic"/>
    </filter>
    <filter id="drop-shadow-21" filterUnits="userSpaceOnUse">
      <feOffset dx="0" dy="0"/>
      <feGaussianBlur result="blur-21" stdDeviation="2"/>
      <feFlood flood-color="#898989" flood-opacity=".4"/>
      <feComposite in2="blur-21" operator="in"/>
      <feComposite in="SourceGraphic"/>
    </filter>
    <filter id="drop-shadow-22" filterUnits="userSpaceOnUse">
      <feOffset dx="0" dy="0"/>
      <feGaussianBlur result="blur-22" stdDeviation="2"/>
      <feFlood flood-color="#898989" flood-opacity=".4"/>
      <feComposite in2="blur-22" operator="in"/>
      <feComposite in="SourceGraphic"/>
    </filter>
    <filter id="drop-shadow-23" filterUnits="userSpaceOnUse">
      <feOffset dx="0" dy="0"/>
      <feGaussianBlur result="blur-23" stdDeviation="2"/>
      <feFlood flood-color="#898989" flood-opacity=".4"/>
      <feComposite in2="blur-23" operator="in"/>
      <feComposite in="SourceGraphic"/>
    </filter>
    <filter id="drop-shadow-24" filterUnits="userSpaceOnUse">
      <feOffset dx="0" dy="0"/>
      <feGaussianBlur result="blur-24" stdDeviation="2"/>
      <feFlood flood-color="#898989" flood-opacity=".4"/>
      <feComposite in2="blur-24" operator="in"/>
      <feComposite in="SourceGraphic"/>
    </filter>
    <filter id="drop-shadow-25" filterUnits="userSpaceOnUse">
      <feOffset dx="0" dy="0"/>
      <feGaussianBlur result="blur-25" stdDeviation="2"/>
      <feFlood flood-color="#898989" flood-opacity=".4"/>
      <feComposite in2="blur-25" operator="in"/>
      <feComposite in="SourceGraphic"/>
    </filter>
    <filter id="drop-shadow-26" filterUnits="userSpaceOnUse">
      <feOffset dx="0" dy="0"/>
      <feGaussianBlur result="blur-26" stdDeviation="2"/>
      <feFlood flood-color="#898989" flood-opacity=".3"/>
      <feComposite in2="blur-26" operator="in"/>
      <feComposite in="SourceGraphic"/>
    </filter>
    <filter id="drop-shadow-27" filterUnits="userSpaceOnUse">
      <feOffset dx="0" dy="0"/>
      <feGaussianBlur result="blur-27" stdDeviation="2"/>
      <feFlood flood-color="#898989" flood-opacity=".4"/>
      <feComposite in2="blur-27" operator="in"/>
      <feComposite in="SourceGraphic"/>
    </filter>
    <filter id="drop-shadow-28" filterUnits="userSpaceOnUse">
      <feOffset dx="0" dy="0"/>
      <feGaussianBlur result="blur-28" stdDeviation="2"/>
      <feFlood flood-color="#898989" flood-opacity=".4"/>
      <feComposite in2="blur-28" operator="in"/>
      <feComposite in="SourceGraphic"/>
    </filter>
    <filter id="drop-shadow-29" filterUnits="userSpaceOnUse">
      <feOffset dx="0" dy="0"/>
      <feGaussianBlur result="blur-29" stdDeviation="2"/>
      <feFlood flood-color="#898989" flood-opacity=".4"/>
      <feComposite in2="blur-29" operator="in"/>
      <feComposite in="SourceGraphic"/>
    </filter>
    <filter id="drop-shadow-30" filterUnits="userSpaceOnUse">
      <feOffset dx="0" dy="0"/>
      <feGaussianBlur result="blur-30" stdDeviation="2"/>
      <feFlood flood-color="#898989" flood-opacity=".4"/>
      <feComposite in2="blur-30" operator="in"/>
      <feComposite in="SourceGraphic"/>
    </filter>
    <filter id="drop-shadow-31" filterUnits="userSpaceOnUse">
      <feOffset dx="0" dy="0"/>
      <feGaussianBlur result="blur-31" stdDeviation="2"/>
      <feFlood flood-color="#898989" flood-opacity=".4"/>
      <feComposite in2="blur-31" operator="in"/>
      <feComposite in="SourceGraphic"/>
    </filter>
    <filter id="drop-shadow-32" filterUnits="userSpaceOnUse">
      <feOffset dx="0" dy="0"/>
      <feGaussianBlur result="blur-32" stdDeviation="2"/>
      <feFlood flood-color="#898989" flood-opacity=".4"/>
      <feComposite in2="blur-32" operator="in"/>
      <feComposite in="SourceGraphic"/>
    </filter>
    <filter id="drop-shadow-33" filterUnits="userSpaceOnUse">
      <feOffset dx="0" dy="0"/>
      <feGaussianBlur result="blur-33" stdDeviation="2"/>
      <feFlood flood-color="#898989" flood-opacity=".4"/>
      <feComposite in2="blur-33" operator="in"/>
      <feComposite in="SourceGraphic"/>
    </filter>
  </defs>
  <g id="pillar">
    <g>
      <rect class="cls-28" x="40.78" y="87.16" width="57.22" height="417.01"/>
      <polygon class="cls-26" points="100.35 488.58 38.43 488.58 38.43 422.29 69.39 408.29 100.35 422.29 100.35 488.58"/>
      <polygon class="cls-24" points="102.2 510.32 69.39 529.32 36.58 510.32 36.58 440.05 69.39 425.22 102.2 440.05 102.2 510.32"/>
      <g id="belt">
        <rect class="cls-31" x="39.81" y="145.14" width="59.15" height="6.1"/>
        <polygon class="cls-32" points="66.89 143.49 69.54 141.53 69.54 154.06 66.89 152.46 66.89 143.49"/>
        <path class="cls-27" d="m67.05,144.27l.72,3.51c-1.74,0-2.94,1.21-2.94,2.37v90.39h-6.84v-90.39c.11-2.65,4.75-4.96,9.07-5.89Z"/>
        <polygon class="cls-30" points="59.72 151.41 66.11 155.07 70.28 151.58 70.28 145.53 59.72 151.41"/>
        <polygon class="cls-25" points="59.72 144.93 66.11 140.99 70.28 144.48 70.28 150.53 59.72 144.93"/>
        <path class="cls-29" d="m73.26,144.86l-.72,3.51c1.74,0,2.94,1.21,2.94,2.37v89.8h6.84v-89.8c-.11-2.65-4.75-4.96-9.07-5.89Z"/>
        <polygon class="cls-21" points="69.32 140.99 69.32 154.42 75.6 151.41 75.6 144.98 69.32 140.99"/>
      </g>
      <g id="left_shoulder" data-name="left shoulder">
        <path id="trap" class="cls-19" d="m60.49,49.13c-1.22.54-23.68,8.26-23.13,8.14s31.84,6.41,31.84,6.41l-8.71-14.56Z"/>
        <path id="left_shoulder-2" data-name="left shoulder" class="cls-22" d="m41.45,57.27s-7.21-2.84-7.62-2.29-10.61,11.7-9.93,11.57,4.22,9.25,4.22,9.25l14.83-8.71.27-9.8-1.77-.02Z"/>
        <path id="peck" class="cls-20" d="m71.11,63.01v25.72s-19.73,8.57-20.27,8.44-11.43-4.3-11.57-5.28-9.93-18.94-9.93-18.94c0,0,13.47-15.24,13.88-15.65s27.89,5.71,27.89,5.71Z"/>
      </g>
      <g id="right_shoulder" data-name="right shoulder">
        <path id="trap-2" data-name="trap" class="cls-5" d="m81.72,49.33c1.22.54,23.68,8.26,23.13,8.14s-31.84,6.41-31.84,6.41l8.71-14.56Z"/>
        <path id="peck-2" data-name="peck" class="cls-18" d="m71.11,63.21v25.72s19.73,8.57,20.27,8.44,11.43-4.3,11.57-5.28,9.93-18.94,9.93-18.94c0,0-13.47-15.24-13.88-15.65s-27.89,5.71-27.89,5.71Z"/>
        <path id="right_shoulder-2" data-name="right shoulder" class="cls-17" d="m100.77,57.27s7.21-2.84,7.62-2.29,10.61,11.7,9.93,11.57-4.22,9.25-4.22,9.25l-14.83-8.71-.27-9.8,1.77-.02Z"/>
      </g>
      <g id="head_and_cowl" data-name="head and cowl">
        <g id="chin">
          <polygon class="cls-2" points="76.86 44.49 71.65 43.49 69.77 44.49 67.81 43.49 62.69 44.49 63.69 43.37 67.79 41.37 69.77 42.37 71.57 41.37 75.86 43.37 76.86 44.49"/>
          <polygon class="cls-4" points="74.93 44.12 71.65 43.49 69.77 44.49 67.86 43.51 64.94 44.05 66.35 46.06 73.51 46.06 74.93 44.12"/>
          <polygon class="cls-3" points="52.93 34.92 58.3 38.93 60.61 53.08 58.57 53.08 52.2 34.92 52.93 34.92"/>
          <polygon class="cls-1" points="85.49 34.92 80.12 38.93 77.81 53.08 79.85 53.08 86.21 34.92 85.49 34.92"/>
          <polygon class="cls-33" points="79.85 53.08 58.52 53.08 52.88 36.46 85.49 36.46 79.85 53.08"/>
        </g>
        <path class="cls-6" d="m98.82,36.44l-14-28.67h-29.75l-14,28.67h.02s-.02.08-.02.12v93.64c0,3.16,2.56,5.72,5.72,5.72h7.5V36.44h31.3v99.49h7.5c3.16,0,5.72-2.56,5.72-5.72V36.57s-.01-.08-.02-.12h.02Z"/>
        <path class="cls-13" d="m92.7,37.62l-12.92-31.53h-19.68l-12.92,31.53h-.08v110.34c0,3.16,2.56,5.72,5.72,5.72h5.05V37.81h24.03v115.88h5.15c3.16,0,5.72-2.56,5.72-5.72V37.62h-.08Z"/>
      </g>
      <g id="right_arm" data-name="right arm">
        <path class="cls-12" d="m128.26,94.39s7.48,12.08,7.76,13.17-2.18,7.62-2.18,7.62l-9.66-9.25-14.99-5.61-4.33-9.63v-16.46l12.25-4.63s12.88,19.02,12.88,19.2-1.73,5.59-1.73,5.59Z"/>
        <polygon class="cls-9" points="120.64 125.25 88.65 124.34 84.7 124.09 81.07 125.08 81.6 117.28 83.75 111.87 87.98 113.01 114.19 101.75 125.53 104.98 133.83 115.19 120.64 125.25"/>
        <path class="cls-7" d="m75.43,90.09v32.45s3.46,4.12,3.86,3.86,4.32-2.01,4.32-2.01c0,0-.46-14.48,0-15.28s-4.09-12.77-4.09-12.77l-1.1-9.32-3.17.4.18,2.67Z"/>
      </g>
      <g id="left_arm" data-name="left arm">
        <path class="cls-11" d="m13.96,94.19s-7.48,12.08-7.76,13.17,2.18,7.62,2.18,7.62l9.66-9.25,14.99-5.61,4.33-9.63v-16.46s-12.25-4.63-12.25-4.63c0,0-12.88,19.02-12.88,19.2,0,.18,1.73,5.59,1.73,5.59Z"/>
        <polygon class="cls-10" points="23.46 124.51 54.84 118.22 58.69 117.31 62.43 117.67 60.59 110.08 57.57 105.11 53.59 106.94 25.86 100.25 15.22 105.35 7.5 115.36 23.46 124.51"/>
        <polygon class="cls-8" points="70.37 113.3 66.01 107.6 71.11 107.17 73.01 110.24 70.37 113.3"/>
        <polygon class="cls-16" points="69.89 112.59 62.6 117.24 60.07 111.3 66.01 107.6 69.89 112.59"/>
        <path class="cls-14" d="m72.71,120.9c-.2-.13-10.11-3.67-10.11-3.67l7.28-4.82s.06.12.16.31c.55,1.04,2.31,4.38,2.33,4.51.03.15.33,3.67.33,3.67Z"/>
        <path class="cls-15" d="m69.38,111.88l2.93,9.02,3.03-1.42-.13-16.05s-3.51-2.43-3.61-2.35-14.72,4.15-14.72,4.15l-2.26,5.63,2.68,2.43,12-4.6,2.27,2.3-2.2.89Z"/>
        <polygon class="cls-23" points="69.39 447.19 74.53 463 91.15 463 77.7 472.77 82.84 488.58 69.39 478.81 55.94 488.58 61.08 472.77 47.63 463 64.25 463 69.39 447.19"/>
      </g>
    </g>
  </g>
</svg>